<svg width="84" height="81" viewBox="0 0 84 81" fill="none" xmlns="http://www.w3.org/2000/svg">
<rect width="84" height="81" fill="#F5F5F5"/>
<g id="Section 1">
<path d="M-4128 -9527C-4128 -9528.1 -4127.1 -9529 -4126 -9529H-2490C-2488.9 -9529 -2488 -9528.1 -2488 -9527V-3750C-2488 -3748.9 -2488.9 -3748 -2490 -3748H-4126C-4127.1 -3748 -4128 -3748.9 -4128 -3750V-9527Z" fill="black" fill-opacity="0.1"/>
<path d="M-4126 -9528H-2490V-9530H-4126V-9528ZM-2489 -9527V-3750H-2487V-9527H-2489ZM-2490 -3749H-4126V-3747H-2490V-3749ZM-4127 -3750V-9527H-4129V-3750H-4127ZM-4126 -3749C-4126.55 -3749 -4127 -3749.45 -4127 -3750H-4129C-4129 -3748.34 -4127.66 -3747 -4126 -3747V-3749ZM-2489 -3750C-2489 -3749.45 -2489.45 -3749 -2490 -3749V-3747C-2488.34 -3747 -2487 -3748.34 -2487 -3750H-2489ZM-2490 -9528C-2489.45 -9528 -2489 -9527.55 -2489 -9527H-2487C-2487 -9528.66 -2488.34 -9530 -2490 -9530V-9528ZM-4126 -9530C-4127.66 -9530 -4129 -9528.66 -4129 -9527H-4127C-4127 -9527.55 -4126.55 -9528 -4126 -9528V-9530Z" fill="black" fill-opacity="0.1"/>
</g>
<g id="Desktop - 72" clip-path="url(#clip0_8_3325)">
<rect width="1440" height="1024" transform="translate(-678 -416)" fill="#F7F8F9"/>
<g id="Frame 5833" clip-path="url(#clip1_8_3325)">
<g id="Frame 5813">
<rect width="1168" height="806" transform="translate(-542 -198)" fill="white"/>
<g id="Frame 6199">
<g id="Frame 6157">
<rect width="635" height="164.999" transform="translate(-275.5 -17)" fill="#F5F9FF"/>
<g id="Object">
<g id="Group">
<g id="Group_2">
<g id="Group_3">
<path id="Vector" d="M56.5547 32.3066C50.6075 32.3066 44.5536 32.065 38.8905 30.4876C33.334 28.9458 28.2323 25.9545 23.6848 22.4942C20.7077 20.2419 18.0005 18.4513 14.1352 18.7214C10.3529 18.9225 6.73575 20.335 3.81808 22.75C-1.09887 27.0558 -0.359957 35.0278 1.60833 40.6197C4.56426 49.0536 13.5596 54.9226 21.2051 58.7309C30.0371 63.1433 39.7432 65.7012 49.4706 67.179C57.9971 68.4722 68.9536 69.4172 76.3433 63.8466C83.1291 58.7308 84.9906 47.0498 83.3279 39.163C82.925 36.831 81.6844 34.7263 79.8392 33.2443C75.0715 29.7628 67.9589 32.0862 62.6013 32.207C60.6118 32.2497 58.5868 32.2925 56.5547 32.3066Z" fill="#D8E6FB"/>
<path id="Vector_2" d="M42.003 80.9994C56.4085 80.9994 68.0871 80.2712 68.0871 79.3723C68.0871 78.4734 56.4085 77.7451 42.003 77.7451C27.5972 77.7451 15.9189 78.4734 15.9189 79.3723C15.9189 80.2712 27.5972 80.9994 42.003 80.9994Z" fill="#1050B0"/>
<path id="Vector_3" d="M74.5532 10.1494C74.9377 10.1494 75.2495 9.83768 75.2495 9.45311C75.2495 9.06854 74.9377 8.75684 74.5532 8.75684C74.1688 8.75684 73.8569 9.06868 73.8569 9.45311C73.8569 9.83768 74.1688 10.1494 74.5532 10.1494Z" fill="#9BB3D7"/>
<path id="Vector_4" d="M28.2324 4.30759C28.617 4.30759 28.9287 3.99574 28.9287 3.61131C28.9287 3.22674 28.6169 2.91504 28.2324 2.91504C27.8478 2.91504 27.5361 3.22689 27.5361 3.61131C27.5361 3.99574 27.8478 4.30759 28.2324 4.30759Z" fill="#9BB3D7"/>
<path id="Vector_5" d="M36.6509 70.6103C37.0355 70.6103 37.3472 70.2983 37.3472 69.914C37.3472 69.5296 37.0353 69.2178 36.6509 69.2178C36.2663 69.2178 35.9546 69.5296 35.9546 69.914C35.9546 70.2983 36.2663 70.6103 36.6509 70.6103Z" fill="#9BB3D7"/>
<path id="Vector_6" d="M55.2397 1V4.05519" stroke="#0E63E2" stroke-width="0.710536" stroke-linecap="round" stroke-linejoin="round"/>
<path id="Vector_7" d="M53.7124 2.52441H56.7677" stroke="#0E63E2" stroke-width="0.710536" stroke-linecap="round" stroke-linejoin="round"/>
<path id="Vector_8" d="M5.4585 13.8662V16.9214" stroke="#0E63E2" stroke-width="0.710536" stroke-linecap="round" stroke-linejoin="round"/>
<path id="Vector_9" d="M3.92334 15.3838H6.98574" stroke="#0E63E2" stroke-width="0.710536" stroke-linecap="round" stroke-linejoin="round"/>
<path id="Vector_10" d="M7.7627 56.4277V59.4901" stroke="#0E63E2" stroke-width="0.710536" stroke-linecap="round" stroke-linejoin="round"/>
<path id="Vector_11" d="M6.22754 57.959H9.28994" stroke="#0E63E2" stroke-width="0.710536" stroke-linecap="round" stroke-linejoin="round"/>
<path id="Vector_12" d="M70.8921 25.1025V28.1577" stroke="#0E63E2" stroke-width="0.710536" stroke-linecap="round" stroke-linejoin="round"/>
<path id="Vector_13" d="M69.3647 26.6318H72.42" stroke="#0E63E2" stroke-width="0.710536" stroke-linecap="round" stroke-linejoin="round"/>
<path id="Vector_14" d="M49.5992 7.27762L13.9349 11.9607C11.6233 12.2643 9.99555 14.3842 10.2991 16.6956L15.7352 58.0917C16.0387 60.4031 18.1587 62.0308 20.4702 61.7274L56.1345 57.0443C58.4459 56.7409 60.0737 54.6207 59.7702 52.3093L54.3346 10.9132C54.0304 8.60181 51.9107 6.97407 49.5992 7.27762Z" fill="#94B5E6"/>
<path id="Vector_15" d="M59.9876 13.3506H23.9631C21.6282 13.3506 19.7354 15.2433 19.7354 17.5783V59.3926C19.7354 61.7274 21.6282 63.6203 23.9631 63.6203H59.9877C62.3226 63.6203 64.2155 61.7274 64.2155 59.3926V17.5783C64.2154 15.2433 62.3224 13.3506 59.9876 13.3506Z" fill="white" stroke="#0B4FB5" stroke-width="0.710536" stroke-linecap="round" stroke-linejoin="round"/>
<path id="Vector_16" d="M25.1143 46.436L32.3192 34.691C32.39 34.5194 32.5103 34.3727 32.6647 34.2695C32.819 34.1662 33.0005 34.1112 33.1861 34.1112C33.3717 34.1112 33.5532 34.1664 33.7076 34.2695C33.8619 34.3727 33.9822 34.5194 34.053 34.691L38.1387 41.3486C38.2081 41.5208 38.3273 41.6681 38.4812 41.772C38.6351 41.8758 38.8165 41.9312 39.0021 41.9312C39.1877 41.9312 39.3691 41.8758 39.5228 41.772C39.6767 41.6681 39.796 41.5206 39.8654 41.3486L46.8571 29.9801C46.9265 29.8079 47.0457 29.6606 47.1995 29.5567C47.3534 29.4529 47.5348 29.3975 47.7204 29.3975C47.906 29.3975 48.0874 29.453 48.2412 29.5567C48.3951 29.6606 48.5143 29.8081 48.5838 29.9801L58.844 46.6988L25.1143 46.436Z" fill="white" stroke="#0A64EA" stroke-width="0.710536" stroke-linecap="round" stroke-linejoin="round"/>
<path id="Vector_17" d="M39.479 33.1044C40.7308 33.1044 41.7456 32.0896 41.7456 30.8378C41.7456 29.5861 40.7308 28.5713 39.479 28.5713C38.2272 28.5713 37.2124 29.5861 37.2124 30.8378C37.2124 32.0897 38.2272 33.1044 39.479 33.1044Z" fill="white" stroke="#0A64EA" stroke-width="0.710536" stroke-linecap="round" stroke-linejoin="round"/>
</g>
</g>
</g>
</g>
</g>
</g>
</g>
</g>
</g>
<defs>
<clipPath id="clip0_8_3325">
<rect width="1440" height="1024" fill="white" transform="translate(-678 -416)"/>
</clipPath>
<clipPath id="clip1_8_3325">
<rect width="1168" height="806" fill="white" transform="translate(-542 -198)"/>
</clipPath>
</defs>
</svg>
