<svg width="45" height="44" viewBox="0 0 45 44" fill="none" xmlns="http://www.w3.org/2000/svg">
<g clip-path="url(#clip0_265_3860)">
<circle cx="23.375" cy="24" r="20" fill="#EDEDED"/>
<mask id="mask0_265_3860" style="mask-type:alpha" maskUnits="userSpaceOnUse" x="3" y="3" width="41" height="41">
<ellipse cx="23.375" cy="23.5" rx="20" ry="20.5" fill="#FFDE9B"/>
</mask>
<g mask="url(#mask0_265_3860)">
<path fill-rule="evenodd" clip-rule="evenodd" d="M36.8598 35.2875V20.5159L40.7748 18.2582L44.366 20.3238V35.2875H36.8598Z" fill="#2B5B8C"/>
<path fill-rule="evenodd" clip-rule="evenodd" d="M13.2494 35.2877V13.2503L27.5289 5L31.7683 11.341V35.2877H13.2494Z" fill="#8FC3E6"/>
<path fill-rule="evenodd" clip-rule="evenodd" d="M19.6271 9.57567L20.8516 8.86707V35.2879H19.6271V9.57567Z" fill="#3A8AC0"/>
<path fill-rule="evenodd" clip-rule="evenodd" d="M27.5288 5L38.5054 11.341V35.2877H27.5288V5Z" fill="#3A8AC0"/>
<path fill-rule="evenodd" clip-rule="evenodd" d="M42.6963 21.5005C42.6963 21.1644 42.4199 20.8882 42.0838 20.8882C41.7477 20.8882 41.4712 21.1644 41.4712 21.5005V29.2587C41.4712 29.5949 41.7477 29.8712 42.0838 29.8712C42.4199 29.8712 42.6963 29.5949 42.6963 29.2587V21.5005Z" fill="#8FC3E6"/>
<path fill-rule="evenodd" clip-rule="evenodd" d="M4.37499 39.7433L29.9548 24.9717L31.7683 27.6138V46.0001H4.37499V39.7433Z" fill="#2B5B8C"/>
<path fill-rule="evenodd" clip-rule="evenodd" d="M29.9547 24.9717L45.7471 34.099V46.0001H29.9547V24.9717Z" fill="#8FC3E6"/>
<path fill-rule="evenodd" clip-rule="evenodd" d="M45.7471 39.4189V40.6799L29.9547 36.1164V34.8553L45.7471 39.4189Z" fill="#3A8AC0"/>
<path fill-rule="evenodd" clip-rule="evenodd" d="M35.0467 12.1094C34.7582 11.9413 34.3858 12.0373 34.2181 12.3376C34.0499 12.6257 34.1459 12.998 34.4462 13.1662L35.1786 13.5865V14.9076C35.1786 15.2437 35.455 15.5201 35.7915 15.5201C36.1273 15.5201 36.3916 15.2437 36.3916 14.9076V13.2384C36.3916 13.0342 36.2836 12.83 36.0914 12.7098L35.0467 12.1094Z" fill="#8FC3E6"/>
<path fill-rule="evenodd" clip-rule="evenodd" d="M30.2544 9.33516C29.9665 9.16683 29.5943 9.27515 29.4258 9.56329C29.2577 9.85143 29.3537 10.2238 29.6421 10.3919L30.3748 10.8123V12.1333C30.3748 12.4815 30.6507 12.7457 30.9873 12.7457C31.3234 12.7457 31.5994 12.4815 31.5994 12.1333V10.464C31.5994 10.2598 31.4914 10.0557 31.2996 9.93565L30.2544 9.33516Z" fill="#8FC3E6"/>
<path fill-rule="evenodd" clip-rule="evenodd" d="M35.0467 17.2613C34.7582 17.0932 34.3858 17.1893 34.2181 17.4774C34.0499 17.7658 34.1459 18.138 34.4462 18.3062L35.1786 18.7386V20.0596C35.1786 20.3958 35.455 20.6602 35.7915 20.6602C36.1273 20.6602 36.3916 20.3958 36.3916 20.0596V18.3781C36.3916 18.1742 36.2836 17.97 36.0914 17.8618L35.0467 17.2613Z" fill="#8FC3E6"/>
<path fill-rule="evenodd" clip-rule="evenodd" d="M30.2544 14.4871C29.9665 14.319 29.5943 14.4152 29.4258 14.7033C29.2577 15.0034 29.3537 15.3758 29.6421 15.544L30.3748 15.9645V17.2855C30.3748 17.6216 30.6507 17.8978 30.9873 17.8978C31.3234 17.8978 31.5994 17.6216 31.5994 17.2855V15.616C31.5994 15.3999 31.4914 15.1957 31.2996 15.0878L30.2544 14.4871Z" fill="#8FC3E6"/>
<path fill-rule="evenodd" clip-rule="evenodd" d="M35.0467 22.4014C34.7582 22.2333 34.3858 22.3292 34.2181 22.6295C34.0499 22.9178 34.1459 23.29 34.4462 23.4582L35.1786 23.8787V25.1997C35.1786 25.5358 35.455 25.8123 35.7915 25.8123C36.1273 25.8123 36.3916 25.5358 36.3916 25.1997V23.5302C36.3916 23.3264 36.2836 23.1221 36.0914 23.0019L35.0467 22.4014Z" fill="#8FC3E6"/>
<path fill-rule="evenodd" clip-rule="evenodd" d="M30.2544 19.6272C29.9665 19.459 29.5943 19.5672 29.4258 19.8554C29.2577 20.1435 29.3537 20.5159 29.6421 20.684L30.3748 21.1163V22.4373C30.3748 22.7736 30.6507 23.0376 30.9873 23.0376C31.3234 23.0376 31.5994 22.7736 31.5994 22.4373V20.7559C31.5994 20.5517 31.4914 20.3476 31.2996 20.2276L30.2544 19.6272Z" fill="#8FC3E6"/>
<path fill-rule="evenodd" clip-rule="evenodd" d="M22.3169 45.9997H17.3447V36.0438L22.3169 33.6542V45.9997Z" fill="#3A8AC0"/>
</g>
<rect x="0.375" width="16.5" height="16.5" rx="8.25" fill="#F67141"/>
<path d="M8.625 5.04163V11.4583" stroke="white" stroke-width="1.375" stroke-linecap="round" stroke-linejoin="round"/>
<path d="M5.41675 8.25H11.8334" stroke="white" stroke-width="1.375" stroke-linecap="round" stroke-linejoin="round"/>
</g>
<defs>
<clipPath id="clip0_265_3860">
<rect width="44" height="44" fill="white" transform="translate(0.375)"/>
</clipPath>
</defs>
</svg>
