<svg width="319" height="32" viewBox="0 0 319 32" fill="none" xmlns="http://www.w3.org/2000/svg">
<g clip-path="url(#clip0_3806_3430)">
<path d="M28 2.041H34.3052V29.9681H28V2.041ZM53.9317 9.93166C53.9317 8.90205 53.5216 8.09112 52.7107 7.50797C51.8998 6.92483 50.7699 6.63326 49.3303 6.63326C47.8907 6.63326 46.6788 6.87016 45.8497 7.34396C45.0205 7.81777 44.6105 8.44647 44.6105 9.23918C44.6105 9.92255 44.8656 10.4784 45.385 10.9339C45.9043 11.3804 46.5604 11.7449 47.3622 12.0091C48.164 12.2825 49.2574 12.574 50.6424 12.9021C52.6743 13.3941 54.3508 13.8952 55.672 14.4055C56.9841 14.9248 58.1139 15.7175 59.0524 16.8109C59.9909 17.8952 60.4556 19.3531 60.4556 21.1663C60.4556 24.3462 59.4351 26.6697 57.385 28.1458C55.3349 29.6219 52.5194 30.369 48.9385 30.369C45.6765 30.369 42.9886 29.6583 40.8565 28.2278C38.7244 26.8064 37.6583 24.6378 37.6583 21.7312V20.8383H43.5991V21.4852C43.5991 22.6788 44.0456 23.6264 44.9385 24.3189C45.8314 25.0114 47.098 25.3576 48.7289 25.3576C50.6333 25.3576 51.9909 25.0569 52.82 24.4647C53.6492 23.8724 54.0592 23.1071 54.0592 22.1868C54.0592 21.4852 53.8041 20.9021 53.303 20.4556C52.8018 20.0091 52.164 19.6538 51.3895 19.3986C50.615 19.1435 49.5399 18.8519 48.1549 18.5239C46.0957 18.0046 44.41 17.4943 43.1071 16.9749C41.8041 16.4556 40.6743 15.6355 39.7267 14.4875C38.779 13.3485 38.3052 11.8087 38.3052 9.88611C38.3052 8.09112 38.7973 6.57859 39.7722 5.3303C40.7472 4.082 42.0592 3.15262 43.6993 2.54214C45.3394 1.93166 47.18 1.62187 49.221 1.62187C52.3462 1.62187 54.8975 2.30524 56.8747 3.68109C58.8519 5.04784 59.8451 7.09795 59.8451 9.8041V10.2961H53.9408V9.93166H53.9317ZM23.7995 19.918C24.0273 15.4533 23.7995 14.779 23.7995 14.779H11.59V19.3349H17.9043C17.9043 21.3485 17.4305 22.8519 16.4829 23.8542C15.5353 24.8565 14.2141 25.3576 12.5376 25.3576C10.861 25.3576 9.4123 24.7927 8.28246 23.672C7.15262 22.5421 6.59681 20.9476 6.59681 18.8884V13.1025C6.59681 11.0433 7.14351 9.44875 8.22779 8.31891C9.31207 7.18907 10.7153 6.62415 12.4191 6.62415C13.9954 6.62415 15.2984 7.07062 16.328 7.96355C17.0023 8.55581 17.4579 9.32119 17.6948 10.287H23.7084C23.508 8.90205 23.0615 7.64465 22.3599 6.52392C21.385 4.96583 20.0547 3.75399 18.369 2.89749C16.6834 2.041 14.8246 1.61276 12.7927 1.61276H12.2187C9.85877 1.61276 7.74487 2.1139 5.88611 3.11617C4.02734 4.11845 2.57859 5.55809 1.54898 7.43508C0.519362 9.30296 0 11.4898 0 13.9863V17.9772C0 20.4738 0.492027 22.6606 1.48519 24.5285C2.47836 26.4055 3.8451 27.836 5.59453 28.8474C7.34396 29.8497 9.3303 30.3508 11.5626 30.3508H11.7631C13.3394 30.3508 17.0934 30.6333 20.1367 28.0182C21.9954 26.4328 23.5718 24.4374 23.7995 19.918ZM81.3759 0H81.9317V32H81.3759V0ZM63.8178 2.041H70.123V29.9681H63.8178V2.041ZM97.1207 11.1617C97.7039 11.4624 98.1595 11.8998 98.4693 12.4647C98.7882 13.0296 98.9431 13.6765 98.9431 14.4146H97.4943C97.4943 13.6583 97.2847 13.0661 96.8656 12.6469C96.4465 12.2278 95.8451 12.0182 95.0524 12.0182C94.1686 12.0182 93.4943 12.2916 93.0296 12.8383C92.5649 13.385 92.3371 14.1868 92.3371 15.2528V16.5831C92.3371 17.6492 92.5649 18.451 93.0205 18.9977C93.4761 19.5444 94.1595 19.8178 95.0524 19.8178C95.9453 19.8178 96.5376 19.5991 96.9294 19.1708C97.3212 18.7426 97.5216 18.0592 97.5216 17.1207V16.9294H94.6515V15.6264H98.9431V19.0888C98.9431 19.9089 98.9704 20.5376 99.0342 20.9841H98.1777C98.0501 20.5831 97.9499 20.1731 97.8861 19.7722C97.2483 20.6834 96.3007 21.1298 95.0615 21.1298C93.7494 21.1298 92.7289 20.7289 91.9909 19.9271C91.2529 19.1253 90.8884 18.0046 90.8884 16.5831V15.2528C90.8884 13.8314 91.2529 12.7198 91.9909 11.9089C92.7198 11.0979 93.7494 10.697 95.0615 10.697C95.8451 10.697 96.5285 10.8519 97.1207 11.1617ZM102.15 10.3417V20.9841H100.756V10.3417H102.15ZM109.704 14.2597C110.333 14.9066 110.651 15.7995 110.651 16.9385V17.4852C110.651 18.615 110.342 19.508 109.722 20.164C109.103 20.8109 108.255 21.139 107.18 21.139C106.105 21.139 105.257 20.8109 104.638 20.164C104.018 19.5171 103.708 18.6241 103.708 17.4852V16.9385C103.708 15.8087 104.027 14.9157 104.656 14.2597C105.285 13.6128 106.132 13.2847 107.18 13.2847C108.228 13.2847 109.075 13.6128 109.704 14.2597ZM105.64 15.0797C105.276 15.5353 105.093 16.2005 105.093 17.0752V17.3576C105.093 18.2141 105.276 18.8793 105.631 19.3349C105.986 19.7995 106.506 20.0273 107.18 20.0273C107.854 20.0273 108.337 19.7995 108.711 19.3349C109.084 18.8793 109.267 18.2141 109.267 17.3485V17.0661C109.267 16.2096 109.084 15.5444 108.729 15.0888C108.374 14.6241 107.854 14.3964 107.18 14.3964C106.506 14.3964 106.005 14.6241 105.64 15.0797ZM113.531 14.3964C113.759 14.0683 114.068 13.8041 114.451 13.5945C114.843 13.385 115.262 13.2847 115.718 13.2847C116.683 13.2847 117.431 13.6219 117.968 14.2961C118.497 14.9704 118.77 15.8816 118.77 17.0387V17.2027C118.77 18.4237 118.497 19.3895 117.95 20.082C117.403 20.7836 116.656 21.1298 115.708 21.1298C114.588 21.1298 113.74 20.6834 113.166 19.7813L112.674 20.9749H112.146V10.3417H113.54V14.3964H113.531ZM113.977 15.0797C113.667 15.5353 113.513 16.246 113.513 17.2118C113.513 18.1777 113.667 18.8884 113.986 19.344C114.305 19.7995 114.788 20.0273 115.435 20.0273C116.729 20.0273 117.367 19.0888 117.367 17.221C117.367 16.2551 117.203 15.5444 116.875 15.0888C116.547 14.6333 116.064 14.3964 115.426 14.3964C114.788 14.3964 114.296 14.6241 113.977 15.0797ZM125.449 13.877C125.941 14.2688 126.178 14.8428 126.178 15.59V19.508C126.178 19.6811 126.214 19.8178 126.296 19.8998C126.378 19.9818 126.469 20.0273 126.588 20.0273C126.815 20.0273 127.043 19.9544 127.271 19.8178V20.8383C126.934 21.0387 126.56 21.139 126.132 21.139C125.704 21.139 125.394 21.0205 125.185 20.7745C124.975 20.5285 124.866 20.2005 124.847 19.7722C124.237 20.6834 123.353 21.1298 122.205 21.1298C121.376 21.1298 120.756 20.9476 120.346 20.5923C119.936 20.2369 119.736 19.6629 119.736 18.8884C119.736 18.2779 119.891 17.795 120.21 17.4487C120.528 17.1025 121.048 16.8474 121.777 16.6834C122.506 16.5285 123.508 16.4465 124.793 16.4465V15.754C124.793 15.2528 124.647 14.8975 124.346 14.697C124.046 14.4966 123.617 14.3964 123.062 14.3964C122.506 14.3964 122.114 14.4966 121.822 14.7062C121.531 14.9157 121.376 15.2073 121.376 15.5809V15.7631H120.018C120 15.6264 119.991 15.4624 119.991 15.2711C119.991 14.9248 120.128 14.5968 120.401 14.2961C120.674 13.9954 121.048 13.7494 121.522 13.5672C121.995 13.385 122.515 13.2939 123.089 13.2939H123.226C124.219 13.2847 124.966 13.4852 125.449 13.877ZM122.451 17.6856C121.923 17.7859 121.567 17.9408 121.394 18.1503C121.212 18.3599 121.13 18.6424 121.13 19.0068C121.13 19.6902 121.649 20.0273 122.679 20.0273C123.048 20.0274 123.41 19.9307 123.73 19.7468C124.05 19.563 124.316 19.2984 124.501 18.9795C124.702 18.6424 124.793 18.2597 124.793 17.8223V17.5308C123.763 17.5308 122.98 17.5854 122.451 17.6856ZM129.85 10.3417V20.9841H128.456V10.3417H129.85ZM138.333 10.8519V12.164H137.148V19.672H138.333V20.9841H134.515V19.672H135.699V12.164H134.515V10.8519H138.333ZM145.513 13.9499C145.986 14.3964 146.223 15.0433 146.223 15.8998V20.9841H144.838V16.1549C144.838 14.9795 144.31 14.3964 143.244 14.3964C142.888 14.3964 142.56 14.4875 142.251 14.6788C141.941 14.8702 141.695 15.1162 141.513 15.4442C141.321 15.7631 141.23 16.1185 141.23 16.5011V20.9932H139.836V13.4396H140.838L141.03 14.5513C141.658 13.713 142.506 13.2939 143.554 13.2939C144.392 13.2939 145.048 13.5125 145.513 13.9499ZM151.544 10.5057V11.5262C151.253 11.3986 150.998 11.3349 150.788 11.3349C150.396 11.3349 150.132 11.4077 149.986 11.5535C149.85 11.6993 149.777 11.9362 149.777 12.2733V13.4396H151.535V14.5513H149.777V20.9932H148.383V14.5513H147.554V13.4396H148.383V12.4191C148.383 10.9613 148.966 10.2323 150.141 10.2323C150.715 10.2232 151.18 10.3235 151.544 10.5057ZM157.64 13.959C158.032 14.4055 158.232 14.9704 158.232 15.6538L158.187 16.2187H156.957V15.8907C156.957 15.5991 156.884 15.3349 156.738 15.1071C156.592 14.8793 156.401 14.7062 156.173 14.5786C155.945 14.4601 155.718 14.3964 155.49 14.3964C155.016 14.3964 154.651 14.5877 154.378 14.9613C154.114 15.3349 153.977 15.8451 153.977 16.4829V20.9932H152.583V13.4396H153.576L153.786 14.5604C153.841 14.3599 153.977 14.1686 154.187 13.9681C154.396 13.7677 154.651 13.6128 154.961 13.4761C155.271 13.3485 155.617 13.2847 155.991 13.2847C156.692 13.2847 157.239 13.5125 157.64 13.959ZM164.528 13.877C165.021 14.2688 165.257 14.8428 165.257 15.59V19.508C165.257 19.6811 165.294 19.8178 165.376 19.8998C165.458 19.9818 165.549 20.0273 165.667 20.0273C165.895 20.0273 166.123 19.9544 166.351 19.8178V20.8383C166.014 21.0387 165.64 21.139 165.212 21.139C164.784 21.139 164.474 21.0205 164.264 20.7745C164.055 20.5285 163.945 20.2005 163.927 19.7722C163.317 20.6834 162.433 21.1298 161.285 21.1298C160.456 21.1298 159.836 20.9476 159.426 20.5923C159.016 20.2369 158.816 19.6629 158.816 18.8884C158.816 18.2779 158.97 17.795 159.289 17.4487C159.608 17.1025 160.128 16.8474 160.856 16.6834C161.585 16.5285 162.588 16.4465 163.872 16.4465V15.754C163.872 15.2528 163.727 14.8975 163.426 14.697C163.125 14.4966 162.697 14.3964 162.141 14.3964C161.585 14.3964 161.194 14.4966 160.902 14.7062C160.61 14.9157 160.456 15.2073 160.456 15.5809V15.7631H159.098C159.08 15.6264 159.071 15.4624 159.071 15.2711C159.071 14.9248 159.207 14.5968 159.481 14.2961C159.754 13.9954 160.128 13.7494 160.601 13.5672C161.075 13.385 161.595 13.2939 162.169 13.2939H162.305C163.298 13.2847 164.046 13.4852 164.528 13.877ZM161.531 17.6856C161.002 17.7859 160.647 17.9408 160.474 18.1503C160.292 18.3599 160.21 18.6424 160.21 19.0068C160.21 19.6902 160.729 20.0273 161.759 20.0273C162.127 20.0274 162.49 19.9307 162.81 19.7468C163.129 19.563 163.395 19.2984 163.581 18.9795C163.781 18.6424 163.872 18.2597 163.872 17.8223V17.5308C162.843 17.5308 162.059 17.5854 161.531 17.6856ZM171.863 13.549C172.301 13.7221 172.638 13.9681 172.884 14.287C173.13 14.6059 173.248 14.9522 173.248 15.3349L173.23 15.5991H171.854V15.4624C171.854 14.7426 171.298 14.3872 170.187 14.3872C169.075 14.3872 168.528 14.7153 168.528 15.3804C168.528 15.6811 168.683 15.9089 169.002 16.0547C169.321 16.2005 169.804 16.3371 170.451 16.4647C171.071 16.5923 171.581 16.7289 171.982 16.8656C172.383 17.0023 172.72 17.221 173.002 17.5125C173.285 17.8132 173.421 18.205 173.421 18.7062C173.421 19.5171 173.148 20.1185 172.592 20.5285C172.036 20.9294 171.244 21.139 170.214 21.139H169.995C169.376 21.139 168.829 21.0387 168.374 20.8474C167.909 20.656 167.554 20.3918 167.298 20.0638C167.043 19.7358 166.925 19.3622 166.934 18.9431V18.615H168.31V18.7608C168.31 19.5991 169.011 20.0182 170.424 20.0182C170.834 20.0182 171.207 19.9271 171.535 19.7358C171.863 19.5444 172.027 19.2893 172.027 18.9704C172.027 18.697 171.936 18.4784 171.754 18.3235C171.572 18.1686 171.344 18.0501 171.08 17.9681C170.815 17.8861 170.442 17.8132 169.968 17.7312C169.358 17.6128 168.866 17.4943 168.492 17.3667C168.118 17.2483 167.8 17.0387 167.526 16.738C167.262 16.4374 167.125 16.0364 167.125 15.5262C167.125 14.8246 167.399 14.2779 167.954 13.877C168.51 13.4761 169.257 13.2756 170.214 13.2756H170.351C170.925 13.2847 171.426 13.3759 171.863 13.549ZM176.492 13.4305H178.251V14.5421H176.492V19.0524C176.492 19.4077 176.565 19.6629 176.702 19.8178C176.838 19.9727 177.048 20.0547 177.339 20.0547C177.595 20.0547 177.904 19.9818 178.26 19.836V20.8747C177.904 21.0478 177.449 21.139 176.884 21.139C176.319 21.139 175.863 20.9658 175.563 20.6196C175.262 20.2733 175.116 19.7267 175.116 18.9795V14.5421H174.287V13.4305H175.162L175.636 11.0251H176.51V13.4305H176.492ZM184.519 13.959C184.911 14.4055 185.112 14.9704 185.112 15.6538L185.066 16.2187H183.836V15.8907C183.836 15.5991 183.763 15.3349 183.617 15.1071C183.472 14.8793 183.28 14.7062 183.052 14.5786C182.825 14.4601 182.597 14.3964 182.369 14.3964C181.895 14.3964 181.531 14.5877 181.257 14.9613C180.993 15.3349 180.857 15.8451 180.857 16.4829V20.9932H179.462V13.4396H180.456L180.665 14.5604C180.72 14.3599 180.857 14.1686 181.066 13.9681C181.276 13.7677 181.531 13.6128 181.841 13.4761C182.15 13.3485 182.497 13.2847 182.87 13.2847C183.581 13.2847 184.128 13.5125 184.519 13.959ZM192.528 19.508C192.528 19.6811 192.565 19.8178 192.647 19.8998C192.729 19.9818 192.829 20.0273 192.948 20.0273C193.166 20.0273 193.385 19.9544 193.613 19.8178V20.8383C193.303 21.0387 192.993 21.139 192.683 21.139C192.155 21.139 191.781 21.0296 191.572 20.8109C191.362 20.5923 191.244 20.2916 191.226 19.8907C190.961 20.2825 190.615 20.5923 190.196 20.8109C189.777 21.0296 189.294 21.139 188.756 21.139C188 21.139 187.371 20.9112 186.888 20.4647C186.405 20.0182 186.159 19.3713 186.159 18.5239V13.4396H187.554V18.2688C187.554 19.4442 188.082 20.0273 189.148 20.0273C189.494 20.0273 189.822 19.9362 190.132 19.7449C190.442 19.5535 190.688 19.3075 190.879 18.9795C191.062 18.6606 191.162 18.3052 191.162 17.9226V13.4305H192.556V19.508H192.528ZM199.426 13.6765C199.9 13.9408 200.273 14.3052 200.538 14.779C200.802 15.2528 200.939 15.7904 200.939 16.4009H199.563C199.563 15.7904 199.408 15.2984 199.098 14.9339C198.788 14.5695 198.342 14.3872 197.759 14.3872C197.175 14.3872 196.665 14.5877 196.301 14.9977C195.936 15.4077 195.763 15.9636 195.763 16.6743V17.4761C195.763 18.3326 195.945 18.9704 196.292 19.3895C196.647 19.8087 197.148 20.0182 197.795 20.0182C198.396 20.0182 198.843 19.836 199.144 19.4806C199.444 19.1253 199.599 18.6333 199.599 18.0228H200.929C200.929 18.9704 200.647 19.7267 200.082 20.2825C199.517 20.8474 198.761 21.1298 197.813 21.1298H197.695C197.021 21.1298 196.437 20.9749 195.936 20.6651C195.435 20.3554 195.043 19.918 194.779 19.3531C194.506 18.7882 194.369 18.1412 194.369 17.385V17.0296C194.369 16.2825 194.506 15.6264 194.779 15.0524C195.052 14.4875 195.444 14.0501 195.945 13.7403C196.446 13.4305 197.021 13.2756 197.677 13.2756H197.795C198.405 13.2847 198.952 13.4214 199.426 13.6765ZM204.018 13.4305H205.777V14.5421H204.018V19.0524C204.018 19.4077 204.091 19.6629 204.228 19.8178C204.364 19.9727 204.574 20.0547 204.866 20.0547C205.121 20.0547 205.431 19.9818 205.786 19.836V20.8747C205.431 21.0478 204.975 21.139 204.41 21.139C203.845 21.139 203.39 20.9658 203.089 20.6196C202.788 20.2733 202.642 19.7267 202.642 18.9795V14.5421H201.813V13.4305H202.688L203.162 11.0251H204.036V13.4305H204.018ZM213.312 19.508C213.312 19.6811 213.349 19.8178 213.431 19.8998C213.513 19.9818 213.613 20.0273 213.731 20.0273C213.95 20.0273 214.169 19.9544 214.396 19.8178V20.8383C214.087 21.0387 213.777 21.139 213.467 21.139C212.939 21.139 212.565 21.0296 212.355 20.8109C212.146 20.5923 212.027 20.2916 212.009 19.8907C211.745 20.2825 211.399 20.5923 210.98 20.8109C210.56 21.0296 210.077 21.139 209.54 21.139C208.784 21.139 208.155 20.9112 207.672 20.4647C207.189 20.0182 206.943 19.3713 206.943 18.5239V13.4396H208.337V18.2688C208.337 19.4442 208.866 20.0273 209.932 20.0273C210.278 20.0273 210.606 19.9362 210.916 19.7449C211.226 19.5535 211.472 19.3075 211.663 18.9795C211.845 18.6606 211.945 18.3052 211.945 17.9226V13.4305H213.339V19.508H213.312ZM220.674 13.959C221.066 14.4055 221.267 14.9704 221.267 15.6538L221.221 16.2187H219.991V15.8907C219.991 15.5991 219.918 15.3349 219.772 15.1071C219.626 14.8793 219.435 14.7062 219.207 14.5786C218.98 14.4601 218.752 14.3964 218.524 14.3964C218.05 14.3964 217.686 14.5877 217.412 14.9613C217.148 15.3349 217.011 15.8451 217.011 16.4829V20.9932H215.617V13.4396H216.61L216.82 14.5604C216.875 14.3599 217.011 14.1686 217.221 13.9681C217.431 13.7677 217.686 13.6128 217.995 13.4761C218.305 13.3485 218.651 13.2847 219.025 13.2847C219.736 13.2847 220.282 13.5125 220.674 13.959ZM227.052 13.6765C227.526 13.9408 227.9 14.3144 228.173 14.7973C228.437 15.2802 228.574 15.8451 228.574 16.4829V17.5308H223.298C223.317 18.3326 223.508 18.9431 223.863 19.3804C224.219 19.8178 224.747 20.0273 225.449 20.0273C226.068 20.0273 226.524 19.8451 226.825 19.4806C227.116 19.1162 227.271 18.6788 227.271 18.1777H228.583C228.583 18.7699 228.446 19.2893 228.173 19.7267C227.9 20.1731 227.526 20.5194 227.052 20.7654C226.579 21.0114 226.032 21.139 225.421 21.139H225.358C224.292 21.139 223.453 20.7927 222.834 20.1093C222.214 19.426 221.913 18.5148 221.913 17.3667V17.0752C221.913 16.328 222.05 15.6629 222.323 15.0979C222.597 14.5239 222.998 14.0866 223.508 13.7677C224.018 13.4487 224.62 13.2939 225.312 13.2939H225.412C226.023 13.2847 226.579 13.4214 227.052 13.6765ZM223.964 14.9157C223.617 15.262 223.399 15.7722 223.317 16.4556H227.189V16.2825C227.189 15.7175 227.016 15.2711 226.679 14.9248C226.342 14.5786 225.886 14.4055 225.33 14.4055C224.765 14.3964 224.31 14.5695 223.964 14.9157ZM239.235 11.4351C239.872 11.9271 240.191 12.6287 240.191 13.5308V13.7039H238.743V13.4852C238.743 13.0114 238.551 12.6469 238.169 12.3918C237.786 12.1367 237.276 12.0091 236.647 12.0091C235.945 12.0091 235.399 12.1276 235.016 12.3554C234.624 12.5831 234.433 12.9203 234.433 13.3576C234.433 13.6856 234.542 13.9499 234.761 14.1595C234.98 14.369 235.262 14.533 235.59 14.6515C235.918 14.7699 236.374 14.9066 236.957 15.0524C237.704 15.2528 238.314 15.4442 238.779 15.6264C239.244 15.8178 239.636 16.0911 239.973 16.4738C240.301 16.8474 240.465 17.3485 240.465 17.9681C240.465 19.0706 240.128 19.8816 239.453 20.3827C238.779 20.8929 237.831 21.1481 236.61 21.1481C235.39 21.1481 234.442 20.8929 233.768 20.3736C233.093 19.8542 232.756 19.1071 232.756 18.123L232.775 17.8314H234.223L234.205 18.1412C234.205 18.7153 234.424 19.1435 234.852 19.4169C235.28 19.6993 235.872 19.836 236.629 19.836C237.385 19.836 237.95 19.6993 238.378 19.426C238.806 19.1526 239.025 18.779 239.025 18.3052C239.025 17.9317 238.907 17.631 238.679 17.3941C238.451 17.1663 238.159 16.9841 237.804 16.8565C237.458 16.7289 236.975 16.5831 236.374 16.4282C235.636 16.2278 235.043 16.0456 234.597 15.8633C234.15 15.6902 233.777 15.4169 233.458 15.0433C233.139 14.6697 232.984 14.1868 232.984 13.5854C232.984 12.6105 233.312 11.8815 233.977 11.4169C234.633 10.9431 235.517 10.7062 236.62 10.7062C237.722 10.7062 238.597 10.9431 239.235 11.4351ZM247.499 14.2597C248.128 14.9066 248.446 15.7995 248.446 16.9385V17.4852C248.446 18.615 248.137 19.508 247.517 20.164C246.898 20.8109 246.05 21.139 244.975 21.139C243.9 21.139 243.052 20.8109 242.433 20.164C241.813 19.5171 241.503 18.6241 241.503 17.4852V16.9385C241.503 15.8087 241.822 14.9157 242.451 14.2597C243.08 13.6128 243.927 13.2847 244.975 13.2847C246.023 13.2847 246.87 13.6128 247.499 14.2597ZM243.435 15.0797C243.071 15.5353 242.888 16.2005 242.888 17.0752V17.3576C242.888 18.2141 243.071 18.8793 243.426 19.3349C243.781 19.7995 244.301 20.0273 244.975 20.0273C245.649 20.0273 246.132 19.7995 246.506 19.3349C246.879 18.8793 247.062 18.2141 247.062 17.3485V17.0661C247.062 16.2096 246.879 15.5444 246.524 15.0888C246.169 14.6241 245.649 14.3964 244.975 14.3964C244.301 14.3964 243.8 14.6241 243.435 15.0797ZM251.39 10.3417V20.9841H249.995V10.3417H251.39ZM259.708 19.508C259.708 19.6811 259.745 19.8178 259.827 19.8998C259.909 19.9818 260.009 20.0273 260.128 20.0273C260.346 20.0273 260.565 19.9544 260.793 19.8178V20.8383C260.483 21.0387 260.173 21.139 259.863 21.139C259.335 21.139 258.961 21.0296 258.752 20.8109C258.542 20.5923 258.424 20.2916 258.405 19.8907C258.141 20.2825 257.795 20.5923 257.376 20.8109C256.957 21.0296 256.474 21.139 255.936 21.139C255.18 21.139 254.551 20.9112 254.068 20.4647C253.585 20.0182 253.339 19.3713 253.339 18.5239V13.4396H254.734V18.2688C254.734 19.4442 255.262 20.0273 256.328 20.0273C256.674 20.0273 257.002 19.9362 257.312 19.7449C257.622 19.5535 257.868 19.3075 258.059 18.9795C258.241 18.6606 258.342 18.3052 258.342 17.9226V13.4305H259.736V19.508H259.708ZM263.654 13.4305H265.412V14.5421H263.654V19.0524C263.654 19.4077 263.727 19.6629 263.863 19.8178C264 19.9727 264.21 20.0547 264.501 20.0547C264.756 20.0547 265.066 19.9818 265.421 19.836V20.8747C265.066 21.0478 264.611 21.139 264.046 21.139C263.481 21.139 263.025 20.9658 262.724 20.6196C262.424 20.2733 262.278 19.7267 262.278 18.9795V14.5421H261.449V13.4305H262.323L262.797 11.0251H263.672V13.4305H263.654ZM268.064 10.3417V11.6264H266.615V10.3417H268.064ZM268.027 13.4305V20.9841H266.633V13.4305H268.027ZM275.526 14.2597C276.155 14.9066 276.474 15.7995 276.474 16.9385V17.4852C276.474 18.615 276.164 19.508 275.544 20.164C274.925 20.8109 274.077 21.139 273.002 21.139C271.927 21.139 271.08 20.8109 270.46 20.164C269.841 19.5171 269.531 18.6241 269.531 17.4852V16.9385C269.531 15.8087 269.85 14.9157 270.478 14.2597C271.107 13.6128 271.954 13.2847 273.002 13.2847C274.05 13.2847 274.898 13.6128 275.526 14.2597ZM271.462 15.0797C271.098 15.5353 270.916 16.2005 270.916 17.0752V17.3576C270.916 18.2141 271.098 18.8793 271.453 19.3349C271.809 19.7995 272.328 20.0273 273.002 20.0273C273.677 20.0273 274.159 19.7995 274.533 19.3349C274.907 18.8793 275.089 18.2141 275.089 17.3485V17.0661C275.089 16.2096 274.907 15.5444 274.551 15.0888C274.196 14.6241 273.677 14.3964 273.002 14.3964C272.328 14.3964 271.827 14.6241 271.462 15.0797ZM283.636 13.9499C284.109 14.3964 284.346 15.0433 284.346 15.8998V20.9841H282.961V16.1549C282.961 14.9795 282.433 14.3964 281.367 14.3964C281.011 14.3964 280.683 14.4875 280.374 14.6788C280.064 14.8702 279.818 15.1162 279.636 15.4442C279.444 15.7631 279.353 16.1185 279.353 16.5011V20.9932H277.959V13.4396H278.961L279.153 14.5513C279.781 13.713 280.629 13.2939 281.677 13.2939C282.515 13.2939 283.162 13.5125 283.636 13.9499ZM290.606 13.549C291.043 13.7221 291.38 13.9681 291.626 14.287C291.872 14.6059 291.991 14.9522 291.991 15.3349L291.973 15.5991H290.597V15.4624C290.597 14.7426 290.041 14.3872 288.929 14.3872C287.818 14.3872 287.271 14.7153 287.271 15.3804C287.271 15.6811 287.426 15.9089 287.745 16.0547C288.064 16.2005 288.547 16.3371 289.194 16.4647C289.813 16.5923 290.323 16.7289 290.724 16.8656C291.125 17.0023 291.462 17.221 291.745 17.5125C292.027 17.8132 292.164 18.205 292.164 18.7062C292.164 19.5171 291.891 20.1185 291.335 20.5285C290.779 20.9294 289.986 21.139 288.957 21.139H288.738C288.118 21.139 287.572 21.0387 287.116 20.8474C286.651 20.656 286.296 20.3918 286.041 20.0638C285.786 19.7358 285.667 19.3622 285.677 18.9431V18.615H287.052V18.7608C287.052 19.5991 287.754 20.0182 289.166 20.0182C289.576 20.0182 289.95 19.9271 290.278 19.7358C290.606 19.5444 290.77 19.2893 290.77 18.9704C290.77 18.697 290.679 18.4784 290.497 18.3235C290.314 18.1686 290.087 18.0501 289.822 17.9681C289.558 17.8861 289.185 17.8132 288.711 17.7312C288.1 17.6128 287.608 17.4943 287.235 17.3667C286.861 17.2483 286.542 17.0387 286.269 16.738C286.005 16.4374 285.868 16.0364 285.868 15.5262C285.868 14.8246 286.141 14.2779 286.697 13.877C287.253 13.4761 288 13.2756 288.957 13.2756H289.093C289.667 13.2847 290.169 13.3759 290.606 13.549ZM300.091 10.8519V12.164H298.907V19.672H300.091V20.9841H296.273V19.672H297.458V12.164H296.273V10.8519H300.091ZM307.271 13.9499C307.745 14.3964 307.982 15.0433 307.982 15.8998V20.9841H306.597V16.1549C306.597 14.9795 306.068 14.3964 305.002 14.3964C304.647 14.3964 304.319 14.4875 304.009 14.6788C303.699 14.8702 303.453 15.1162 303.271 15.4442C303.08 15.7631 302.989 16.1185 302.989 16.5011V20.9932H301.595V13.4396H302.597L302.788 14.5513C303.417 13.713 304.264 13.2939 305.312 13.2939C306.15 13.2939 306.797 13.5125 307.271 13.9499ZM314.433 13.6765C314.907 13.9408 315.28 14.3052 315.544 14.779C315.809 15.2528 315.945 15.7904 315.945 16.4009H314.579C314.579 15.7904 314.424 15.2984 314.114 14.9339C313.804 14.5695 313.358 14.3872 312.775 14.3872C312.191 14.3872 311.681 14.5877 311.317 14.9977C310.952 15.4077 310.779 15.9636 310.779 16.6743V17.4761C310.779 18.3326 310.961 18.9704 311.308 19.3895C311.663 19.8087 312.164 20.0182 312.811 20.0182C313.412 20.0182 313.859 19.836 314.159 19.4806C314.46 19.1253 314.615 18.6333 314.615 18.0228H315.945C315.945 18.9704 315.663 19.7267 315.098 20.2825C314.533 20.8474 313.777 21.1298 312.829 21.1298H312.711C312.036 21.1298 311.453 20.9749 310.952 20.6651C310.451 20.3554 310.059 19.918 309.795 19.3531C309.522 18.7882 309.385 18.1412 309.385 17.385V17.0296C309.385 16.2825 309.522 15.6264 309.795 15.0524C310.068 14.4875 310.46 14.0501 310.961 13.7403C311.462 13.4305 312.036 13.2756 312.693 13.2756H312.811C313.412 13.2847 313.959 13.4214 314.433 13.6765ZM318.688 19.344V20.9841H317.194V19.344H318.688Z" fill="#1C272F"/>
</g>
<defs>
<clipPath id="clip0_3806_3430">
<rect width="318.688" height="32" fill="white"/>
</clipPath>
</defs>
</svg>
