<svg width="118" height="24" viewBox="0 0 118 24" fill="none" xmlns="http://www.w3.org/2000/svg">
<g id="Frame 5623">
<path id="Vector" d="M62.084 0.5H62.6189V23.5H62.084V0.5Z" fill="#09021A"/>
<g id="Vector_2">
<path d="M71.2863 1.6944C71.1206 1.39223 70.8769 1.1583 70.565 0.997467C70.2482 0.831763 69.8827 0.74891 69.4636 0.74891C68.7618 0.74891 68.211 0.963351 67.8212 1.39711C67.4264 1.83086 67.2314 2.42545 67.2314 3.18574V3.89729C67.2314 4.65758 67.4264 5.25704 67.8212 5.68592C68.2159 6.11481 68.7618 6.32925 69.4636 6.32925C70.1264 6.32925 70.6333 6.09044 70.9744 5.60307C71.0085 5.81751 71.0621 6.03683 71.1304 6.25127H71.5885C71.5544 6.01246 71.5398 5.67618 71.5398 5.23755V3.38556H69.2443V4.08249H70.7795V4.18484C70.7795 4.68683 70.6722 5.05235 70.4627 5.28141C70.2531 5.51047 69.9363 5.62744 69.4587 5.62744C68.9811 5.62744 68.6156 5.48123 68.3719 5.18881C68.1282 4.89639 68.0064 4.46751 68.0064 3.89729V3.18574C68.0064 2.61552 68.1282 2.18664 68.3768 1.89422C68.6253 1.6018 68.986 1.45559 69.4587 1.45559C69.8827 1.45559 70.2044 1.56768 70.4286 1.79187C70.6528 2.01606 70.7648 2.33285 70.7648 2.73736H71.5398C71.5398 2.3426 71.4569 1.99657 71.2863 1.6944Z" fill="#09021A"/>
<path d="M73.2553 6.25127V0.558838H72.5096V6.25127H73.2553Z" fill="#09021A"/>
<path d="M77.8024 4.08736C77.8024 3.47816 77.6318 3.00054 77.2955 2.65451C76.9593 2.30848 76.506 2.13303 75.9455 2.13303C75.3851 2.13303 74.9318 2.30848 74.5955 2.65451C74.2593 3.00541 74.0887 3.48303 74.0887 4.08736V4.37978C74.0887 4.98899 74.2544 5.46661 74.5858 5.81264C74.9172 6.15867 75.3704 6.33412 75.9455 6.33412C76.5206 6.33412 76.9739 6.15867 77.3053 5.81264C77.6367 5.46174 77.8024 4.98412 77.8024 4.37978V4.08736Z" fill="#09021A"/>
<path d="M79.3474 2.72064C79.4687 2.54841 79.6327 2.40934 79.8347 2.29873C80.0443 2.18664 80.2685 2.13303 80.5122 2.13303C81.0288 2.13303 81.4284 2.31335 81.716 2.674C81.9986 3.03466 82.1448 3.52202 82.1448 4.14098V4.2287C82.1448 4.88177 81.9986 5.39838 81.7062 5.76878C81.4138 6.14405 81.0141 6.32925 80.5073 6.32925C79.9078 6.32925 79.4546 6.09044 79.1475 5.60794L78.8844 6.2464H78.6017V0.558838H79.3474V2.72064Z" fill="#09021A"/>
<path d="M86.1071 3.36606C86.1071 2.96642 85.9804 2.65938 85.7172 2.44982C85.4589 2.24025 85.0593 2.13303 84.5281 2.1379H84.4549C84.1479 2.1379 83.8701 2.18664 83.6167 2.28411C83.3632 2.38159 83.1634 2.51317 83.0172 2.674C82.871 2.83484 82.7979 3.01029 82.7979 3.19549C82.7979 3.29783 82.8028 3.38556 82.8125 3.45866H83.5387V3.36119C83.5387 3.16137 83.6215 3.00541 83.7775 2.89332C83.9335 2.78122 84.143 2.72762 84.4403 2.72762C84.7376 2.72762 84.9667 2.78122 85.1275 2.88845C85.2883 2.99567 85.3663 3.18574 85.3663 3.45379V3.82419C84.6791 3.82419 84.143 3.86805 83.7531 3.9509C83.3632 4.03863 83.0854 4.17509 82.9149 4.36029C82.7443 4.54549 82.6614 4.80379 82.6614 5.13033C82.6614 5.54459 82.7687 5.85163 82.988 6.0417C83.2073 6.23177 83.5387 6.32925 83.9822 6.32925C84.5963 6.32925 85.069 6.09044 85.3956 5.60307C85.4053 5.83213 85.4638 6.00759 85.5759 6.13917C85.688 6.27076 85.8537 6.33412 86.0827 6.33412C86.3118 6.33412 86.5116 6.28051 86.6919 6.17329V5.62744C86.5701 5.70054 86.4483 5.73953 86.3264 5.73953C86.2631 5.73953 86.2143 5.71517 86.1705 5.6713C86.1266 5.62744 86.1071 5.55434 86.1071 5.46174V3.36606Z" fill="#09021A"/>
<path d="M88.0712 6.25127V0.558838H87.3255V6.25127H88.0712Z" fill="#09021A"/>
</g>
<g id="Vector_3">
<path d="M69.2735 10.0916V9.38982H67.2314V10.0916H67.865V14.1075H67.2314V14.8093H69.2735V14.1075H68.6399V10.0916H69.2735Z" fill="#09021A"/>
<path d="M73.4941 12.0898C73.4941 11.6317 73.3674 11.2857 73.1139 11.0469C72.8654 10.8129 72.5145 10.696 72.0661 10.696C71.5056 10.696 71.0524 10.9201 70.7161 11.3685L70.6138 10.7739H70.0777V14.8142H70.8233V12.4115C70.8233 12.2068 70.8721 12.0167 70.9744 11.8461C71.0719 11.6707 71.2035 11.5391 71.3692 11.4368C71.5349 11.3344 71.7103 11.2857 71.9004 11.2857C72.4706 11.2857 72.7533 11.5976 72.7533 12.2263V14.8093H73.4941V12.0898Z" fill="#09021A"/>
<path d="M76.3403 9.75047V9.20462C76.1454 9.10715 75.8968 9.05354 75.5898 9.05841C74.9611 9.05841 74.6492 9.4483 74.6492 10.2281V10.7739H74.2056V11.3685H74.6492V14.8142H75.3948V11.3685H76.3354V10.7739H75.3948V10.1501C75.3948 9.96979 75.4338 9.84307 75.5069 9.76509C75.5849 9.68711 75.7262 9.64812 75.9358 9.64812C76.0479 9.64812 76.1844 9.68224 76.3403 9.75047Z" fill="#09021A"/>
<path d="M79.9176 11.9582C79.9176 11.5927 79.8103 11.2905 79.6008 11.0517C79.3863 10.8129 79.0939 10.6911 78.7186 10.6911C78.5188 10.6911 78.3336 10.7252 78.1679 10.7934C78.0022 10.8665 77.8658 10.9494 77.7537 11.0566C77.6416 11.1638 77.5685 11.2662 77.5392 11.3734L77.4271 10.7739H76.8959V14.8142H77.6416V12.4017C77.6416 12.0606 77.7147 11.7877 77.856 11.5878C78.0022 11.388 78.1972 11.2857 78.4506 11.2857C78.5724 11.2857 78.6943 11.3198 78.8161 11.3831C78.938 11.4514 79.0403 11.544 79.1183 11.6658C79.1963 11.7877 79.2353 11.929 79.2353 12.085V12.2604H79.8932L79.9176 11.9582Z" fill="#09021A"/>
<path d="M83.6752 11.9241C83.6752 11.5245 83.5484 11.2174 83.2853 11.0079C83.027 10.7983 82.6273 10.6911 82.0961 10.696H82.023C81.7159 10.696 81.4381 10.7447 81.1847 10.8422C80.9313 10.9396 80.7315 11.0712 80.5853 11.2321C80.4391 11.3929 80.3659 11.5683 80.3659 11.7535C80.3659 11.8559 80.3708 11.9436 80.3806 12.0167H81.1067V11.9192C81.1067 11.7194 81.1896 11.5635 81.3455 11.4514C81.5015 11.3393 81.7111 11.2857 82.0084 11.2857C82.3057 11.2857 82.5347 11.3393 82.6956 11.4465C82.8564 11.5537 82.9344 11.7438 82.9344 12.0118V12.3822C82.2472 12.3822 81.7111 12.4261 81.3212 12.509C80.9313 12.5967 80.6535 12.7331 80.4829 12.9183C80.3123 13.1035 80.2295 13.3618 80.2295 13.6884C80.2295 14.1026 80.3367 14.4097 80.556 14.5998C80.7753 14.7898 81.1067 14.8873 81.5502 14.8873C82.1643 14.8873 82.6371 14.6485 82.9636 14.1611C82.9734 14.3902 83.0318 14.5656 83.1439 14.6972C83.256 14.8288 83.4217 14.8922 83.6508 14.8922C83.8799 14.8922 84.0797 14.8386 84.26 14.7313V14.1855C84.1382 14.2586 84.0163 14.2976 83.8945 14.2976C83.8311 14.2976 83.7824 14.2732 83.7385 14.2294C83.6947 14.1855 83.6752 14.1124 83.6752 14.0198V11.9241Z" fill="#09021A"/>
<path d="M87.7544 11.2272C87.6228 11.0566 87.4425 10.925 87.2086 10.8324C86.9746 10.7398 86.7066 10.6911 86.3995 10.6862H86.3264C85.8147 10.6862 85.4151 10.7934 85.1178 11.0079C84.8205 11.2223 84.6743 11.5147 84.6743 11.89C84.6743 12.1629 84.7474 12.3774 84.8887 12.5382C85.0349 12.699 85.2055 12.8111 85.4053 12.8745C85.6051 12.9427 85.8683 13.0061 86.1948 13.0694C86.4483 13.1133 86.6481 13.1523 86.7894 13.1961C86.9308 13.24 87.0526 13.3034 87.1501 13.3862C87.2475 13.4691 87.2963 13.586 87.2963 13.7322C87.2963 13.9028 87.2086 14.0393 87.0331 14.1416C86.8577 14.244 86.6578 14.2927 86.4385 14.2927C85.6831 14.2927 85.3078 14.0685 85.3078 13.6202V13.5422H84.5719V13.7176C84.567 13.9418 84.6304 14.1416 84.7669 14.3171C84.9033 14.4925 85.0934 14.6339 85.3419 14.7362C85.5856 14.8386 85.878 14.8922 86.2095 14.8922H86.3264C86.8771 14.8922 87.3012 14.7801 87.5985 14.5656C87.8957 14.3463 88.042 14.0247 88.042 13.5909C88.042 13.3229 87.9688 13.1133 87.8178 12.9525C87.6667 12.7965 87.4864 12.6795 87.2719 12.6064C87.0575 12.5333 86.7845 12.4602 86.4531 12.392C86.1071 12.3238 85.8488 12.2507 85.6782 12.1727C85.5077 12.0947 85.4248 11.9729 85.4248 11.812C85.4248 11.4562 85.7172 11.2808 86.3118 11.2808C86.9064 11.2808 87.2037 11.4709 87.2037 11.8559V11.929H87.9396L87.9494 11.7877C87.9494 11.583 87.886 11.3978 87.7544 11.2272Z" fill="#09021A"/>
<path d="M90.625 10.7691H89.6941V9.48242H89.2263L88.9728 10.7691H88.5049V11.3637H88.9485V13.7371C88.9485 14.1368 89.0264 14.4292 89.1873 14.6144C89.3481 14.7996 89.5918 14.8922 89.8939 14.8922C90.1961 14.8922 90.4398 14.8434 90.6299 14.7508V14.1952C90.4398 14.2732 90.2741 14.3122 90.1376 14.3122C89.9817 14.3122 89.8696 14.2683 89.7965 14.1855C89.7234 14.1026 89.6844 13.9662 89.6844 13.7761V11.3637H90.625V10.7691Z" fill="#09021A"/>
<path d="M94.2949 11.9582C94.2949 11.5927 94.1876 11.2905 93.9781 11.0517C93.7685 10.8129 93.4761 10.6911 93.0959 10.6911C92.8961 10.6911 92.7109 10.7252 92.5452 10.7934C92.3795 10.8665 92.243 10.9494 92.131 11.0566C92.0189 11.1638 91.9458 11.2662 91.9165 11.3734L91.8044 10.7739H91.2732V14.8142H92.0189V12.4017C92.0189 12.0606 92.092 11.7877 92.2333 11.5878C92.3795 11.388 92.5744 11.2857 92.8279 11.2857C92.9497 11.2857 93.0716 11.3198 93.1934 11.3831C93.3152 11.4514 93.4176 11.544 93.4956 11.6658C93.5736 11.7877 93.6125 11.929 93.6125 12.085V12.2604H94.2705L94.2949 11.9582Z" fill="#09021A"/>
<path d="M98.3254 14.2294C98.2815 14.1855 98.262 14.1124 98.262 14.0198H98.2766V10.7691H97.531V13.1718C97.531 13.3765 97.4774 13.5665 97.3799 13.7371C97.2775 13.9126 97.1459 14.0442 96.9802 14.1465C96.8145 14.2489 96.6391 14.2976 96.4539 14.2976C95.8837 14.2976 95.601 13.9857 95.601 13.357V10.7739H94.8553V13.4934C94.8553 13.9467 94.9869 14.2927 95.2452 14.5315C95.5035 14.7703 95.8398 14.8922 96.2443 14.8922C96.5319 14.8922 96.7902 14.8337 97.0144 14.7167C97.2385 14.5998 97.4237 14.4341 97.5651 14.2245C97.5748 14.4389 97.6382 14.5998 97.7503 14.7167C97.8624 14.8337 98.0622 14.8922 98.3449 14.8922C98.5106 14.8922 98.6763 14.8386 98.842 14.7313V14.1855C98.7201 14.2586 98.6032 14.2976 98.4862 14.2976C98.4228 14.2976 98.3692 14.2732 98.3254 14.2294Z" fill="#09021A"/>
<path d="M102.546 11.4904C102.405 11.2369 102.205 11.042 101.951 10.9007C101.698 10.7642 101.406 10.6911 101.079 10.6862H101.016C100.665 10.6862 100.358 10.7691 100.09 10.9348C99.8216 11.1005 99.612 11.3344 99.4658 11.6366C99.3196 11.9436 99.2465 12.2945 99.2465 12.6942V12.8842C99.2465 13.2887 99.3196 13.6348 99.4658 13.9369C99.6071 14.2391 99.8167 14.473 100.085 14.6387C100.353 14.8045 100.665 14.8873 101.025 14.8873H101.089C101.596 14.8873 102 14.7362 102.302 14.4341C102.604 14.1368 102.756 13.7322 102.756 13.2254H102.044C102.044 13.5519 101.961 13.8151 101.8 14.0052C101.639 14.1952 101.401 14.2927 101.079 14.2927C100.733 14.2927 100.465 14.1806 100.275 13.9564C100.09 13.7322 99.9922 13.3911 99.9922 12.933V12.5041C99.9922 12.1239 100.085 11.8266 100.28 11.6073C100.475 11.388 100.748 11.2808 101.059 11.2808C101.371 11.2808 101.61 11.3783 101.776 11.5732C101.942 11.7682 102.024 12.0313 102.024 12.3579H102.76C102.76 12.0313 102.687 11.7438 102.546 11.4904Z" fill="#09021A"/>
<path d="M105.348 10.7691H104.417V9.48242H103.95L103.696 10.7691H103.228V11.3637H103.672V13.7371C103.672 14.1368 103.75 14.4292 103.911 14.6144C104.071 14.7996 104.315 14.8922 104.617 14.8922C104.919 14.8922 105.163 14.8434 105.353 14.7508V14.1952C105.163 14.2732 104.997 14.3122 104.861 14.3122C104.705 14.3122 104.593 14.2683 104.52 14.1855C104.447 14.1026 104.408 13.9662 104.408 13.7761V11.3637H105.348V10.7691Z" fill="#09021A"/>
<path d="M109.442 14.2294C109.398 14.1855 109.379 14.1124 109.379 14.0198H109.393V10.7691H108.648V13.1718C108.648 13.3765 108.594 13.5665 108.497 13.7371C108.394 13.9126 108.263 14.0442 108.097 14.1465C107.931 14.2489 107.756 14.2976 107.571 14.2976C107 14.2976 106.718 13.9857 106.718 13.357V10.7739H105.972V13.4934C105.972 13.9467 106.104 14.2927 106.362 14.5315C106.62 14.7703 106.957 14.8922 107.361 14.8922C107.649 14.8922 107.907 14.8337 108.131 14.7167C108.355 14.5998 108.541 14.4341 108.682 14.2245C108.692 14.4389 108.755 14.5998 108.867 14.7167C108.979 14.8337 109.179 14.8922 109.462 14.8922C109.627 14.8922 109.793 14.8386 109.959 14.7313V14.1855C109.837 14.2586 109.72 14.2976 109.603 14.2976C109.54 14.2976 109.486 14.2732 109.442 14.2294Z" fill="#09021A"/>
<path d="M113.634 11.9582C113.634 11.5927 113.526 11.2905 113.317 11.0517C113.107 10.8129 112.815 10.6911 112.435 10.6911C112.235 10.6911 112.05 10.7252 111.884 10.7934C111.718 10.8665 111.582 10.9494 111.47 11.0566C111.358 11.1638 111.284 11.2662 111.255 11.3734L111.143 10.7739H110.612V14.8142H111.358V12.4017C111.358 12.0606 111.431 11.7877 111.572 11.5878C111.718 11.388 111.913 11.2857 112.167 11.2857C112.288 11.2857 112.41 11.3198 112.532 11.3831C112.654 11.4514 112.756 11.544 112.834 11.6658C112.912 11.7877 112.951 11.929 112.951 12.085V12.2604H113.609L113.634 11.9582Z" fill="#09021A"/>
<path d="M117.328 11.5001C117.182 11.2418 116.982 11.042 116.728 10.9007C116.475 10.7642 116.178 10.6911 115.851 10.696H115.797C115.427 10.696 115.105 10.7788 114.832 10.9494C114.56 11.12 114.345 11.3539 114.199 11.6609C114.053 11.9631 113.98 12.3189 113.98 12.7185V12.8745C113.98 13.4886 114.14 13.9759 114.472 14.3415C114.803 14.707 115.252 14.8922 115.822 14.8922H115.856C116.182 14.8922 116.475 14.8239 116.728 14.6924C116.982 14.5608 117.182 14.3756 117.328 14.1368C117.474 13.9028 117.547 13.625 117.547 13.3082H116.845C116.845 13.5763 116.762 13.8102 116.606 14.0052C116.446 14.2001 116.202 14.2976 115.871 14.2976C115.495 14.2976 115.213 14.1855 115.023 13.9516C114.832 13.7176 114.73 13.3911 114.72 12.9622H117.542V12.4017C117.542 12.0606 117.469 11.7584 117.328 11.5001Z" fill="#09021A"/>
</g>
<g id="Vector_4">
<path d="M71.4095 19.322C71.4095 18.8395 71.2389 18.4642 70.8978 18.201C70.5566 17.9379 70.0888 17.8112 69.499 17.8112C68.9093 17.8112 68.4366 17.9379 68.0857 18.1913C67.7299 18.4399 67.5545 18.8298 67.5545 19.3512C67.5545 19.6729 67.6373 19.9312 67.8079 20.131C67.9785 20.3308 68.1783 20.477 68.4171 20.5696C68.6559 20.6671 68.9727 20.7646 69.3675 20.8718C69.6891 20.9547 69.9474 21.0326 70.1326 21.1009C70.3227 21.1691 70.4786 21.2666 70.6005 21.3884C70.7223 21.5151 70.7857 21.676 70.7857 21.8758C70.7857 22.1292 70.6687 22.329 70.4397 22.4752C70.2106 22.6215 69.9084 22.6946 69.5039 22.6946C69.0994 22.6946 68.7826 22.6215 68.5536 22.4704C68.3245 22.3242 68.2075 22.0951 68.2075 21.7881L68.2173 21.6224H67.4424L67.4326 21.7783C67.4326 22.3047 67.6129 22.7043 67.9736 22.9821C68.3342 23.2599 68.8411 23.3964 69.4942 23.3964C70.1472 23.3964 70.6541 23.2599 71.0147 22.987C71.3754 22.7189 71.5557 22.2852 71.5557 21.6955C71.5557 21.3641 71.468 21.096 71.2926 20.8962C71.1122 20.6915 70.9027 20.5453 70.6541 20.4429C70.4055 20.3455 70.079 20.2431 69.6794 20.1359C69.3674 20.0579 69.1238 19.9848 68.9483 19.9215C68.7729 19.8581 68.6218 19.7704 68.5048 19.6583C68.3878 19.5462 68.3294 19.4048 68.3294 19.2294C68.3294 18.9955 68.4317 18.8151 68.6413 18.6933C68.846 18.5714 69.1384 18.5081 69.5137 18.5081C69.8499 18.5081 70.1229 18.5763 70.3276 18.7128C70.5323 18.8492 70.6346 19.0442 70.6346 19.2976V19.4146H71.4095V19.322Z" fill="#09021A"/>
<path d="M75.8251 21.1447C75.8251 20.5355 75.6545 20.0579 75.3182 19.7119C74.9819 19.3659 74.5286 19.1904 73.9682 19.1904C73.4077 19.1904 72.9545 19.3659 72.6182 19.7119C72.2819 20.0628 72.1113 20.5404 72.1113 21.1447V21.4372C72.1113 22.0464 72.277 22.524 72.6084 22.87C72.9399 23.216 73.3931 23.3915 73.9682 23.3915C74.5433 23.3915 74.9965 23.216 75.3279 22.87C75.6593 22.5191 75.8251 22.0415 75.8251 21.4372V21.1447Z" fill="#09021A"/>
<path d="M77.3992 23.3086V17.6162H76.6536V23.3086H77.3992Z" fill="#09021A"/>
<path d="M81.9123 22.7287C81.8684 22.6848 81.8489 22.6117 81.8489 22.5191H81.8635V19.2684H81.1178V21.6711C81.1178 21.8758 81.0642 22.0659 80.9668 22.2364C80.8644 22.4119 80.7328 22.5435 80.5671 22.6458C80.4014 22.7482 80.226 22.7969 80.0408 22.7969C79.4705 22.7969 79.1879 22.485 79.1879 21.8563V19.2733H78.4422V21.9928C78.4422 22.446 78.5738 22.792 78.8321 23.0308C79.0904 23.2697 79.4267 23.3915 79.8312 23.3915C80.1187 23.3915 80.377 23.333 80.6012 23.216C80.8254 23.0991 81.0106 22.9334 81.152 22.7238C81.1617 22.9382 81.2251 23.0991 81.3372 23.216C81.4493 23.333 81.6491 23.3915 81.9317 23.3915C82.0974 23.3915 82.2631 23.3379 82.4289 23.2307V22.6848C82.307 22.7579 82.19 22.7969 82.0731 22.7969C82.0097 22.7969 81.9561 22.7725 81.9123 22.7287Z" fill="#09021A"/>
<path d="M84.8998 19.2684H83.9689V17.9817H83.5011L83.2476 19.2684H82.7798V19.863H83.2233V22.2364C83.2233 22.6361 83.3012 22.9285 83.4621 23.1137C83.6229 23.2989 83.8666 23.3915 84.1688 23.3915C84.4709 23.3915 84.7146 23.3428 84.9047 23.2502V22.6946C84.7146 22.7725 84.5489 22.8115 84.4124 22.8115C84.2565 22.8115 84.1444 22.7677 84.0713 22.6848C83.9982 22.602 83.9592 22.4655 83.9592 22.2754V19.863H84.8998V19.2684Z" fill="#09021A"/>
<path d="M86.318 18.3034V17.6162H85.5431V18.3034H86.318Z" fill="#09021A"/>
<path d="M86.2985 23.3086V19.2684H85.5529V23.3086H86.2985Z" fill="#09021A"/>
<path d="M90.8164 21.1447C90.8164 20.5355 90.6458 20.0579 90.3096 19.7119C89.9733 19.3659 89.52 19.1904 88.9595 19.1904C88.3991 19.1904 87.9458 19.3659 87.6096 19.7119C87.2733 20.0628 87.1027 20.5404 87.1027 21.1447V21.4372C87.1027 22.0464 87.2684 22.524 87.5998 22.87C87.9312 23.216 88.3845 23.3915 88.9595 23.3915C89.5346 23.3915 89.9879 23.216 90.3193 22.87C90.6507 22.5191 90.8164 22.0415 90.8164 21.4372V21.1447Z" fill="#09021A"/>
<path d="M95.0273 20.5891C95.0273 20.131 94.9005 19.785 94.6471 19.5462C94.3937 19.3122 94.0477 19.1953 93.5993 19.1953C93.0388 19.1953 92.5855 19.4195 92.2493 19.8678L92.1469 19.2733H91.6108V23.3135H92.3565V20.9108C92.3565 20.7061 92.4052 20.516 92.5076 20.3455C92.6051 20.17 92.7366 20.0384 92.9023 19.9361C93.068 19.8337 93.2435 19.785 93.4336 19.785C94.0038 19.785 94.2864 20.0969 94.2864 20.7256V23.3086H95.0273V20.5891Z" fill="#09021A"/>
<path d="M98.9213 19.7265C98.7897 19.5559 98.6094 19.4243 98.3754 19.3317C98.1415 19.2391 97.8735 19.1904 97.5664 19.1855H97.4933C96.9816 19.1855 96.5819 19.2927 96.2847 19.5072C95.9874 19.7216 95.8412 20.014 95.8412 20.3893C95.8412 20.6622 95.9143 20.8767 96.0556 21.0375C96.2018 21.1983 96.3724 21.3104 96.5722 21.3738C96.772 21.442 97.0352 21.5054 97.3617 21.5687C97.6152 21.6126 97.815 21.6516 97.9563 21.6955C98.0977 21.7393 98.2195 21.8027 98.317 21.8855C98.4145 21.9684 98.4632 22.0854 98.4632 22.2316C98.4632 22.4021 98.3754 22.5386 98.2 22.6409C98.0245 22.7433 97.8247 22.792 97.6054 22.792C96.85 22.792 96.4747 22.5678 96.4747 22.1195V22.0415H95.7388V22.2169C95.7339 22.4411 95.7973 22.641 95.9338 22.8164C96.0702 22.9919 96.2603 23.1332 96.5088 23.2355C96.7525 23.3379 97.045 23.3915 97.3764 23.3915H97.4933C98.044 23.3915 98.4681 23.2794 98.7653 23.065C99.0626 22.8456 99.2089 22.524 99.2089 22.0902C99.2089 21.8222 99.1358 21.6126 98.9847 21.4518C98.8336 21.2958 98.6533 21.1789 98.4388 21.1057C98.2244 21.0326 97.9515 20.9595 97.6201 20.8913C97.274 20.8231 97.0157 20.75 96.8451 20.672C96.6745 20.594 96.5917 20.4722 96.5917 20.3113C96.5917 19.9556 96.8841 19.7801 97.4787 19.7801C98.0733 19.7801 98.3706 19.9702 98.3706 20.3552V20.4283H99.1065L99.1163 20.287C99.1163 20.0823 99.0529 19.8971 98.9213 19.7265Z" fill="#09021A"/>
<path d="M103.449 18.5909V17.8891H101.407V18.5909H102.04V22.6068H101.407V23.3086H103.449V22.6068H102.815V18.5909H103.449Z" fill="#09021A"/>
<path d="M107.67 20.5891C107.67 20.131 107.543 19.785 107.289 19.5462C107.036 19.3122 106.69 19.1953 106.242 19.1953C105.681 19.1953 105.228 19.4195 104.892 19.8678L104.789 19.2733H104.253V23.3135H104.999V20.9108C104.999 20.7061 105.047 20.516 105.15 20.3455C105.247 20.17 105.379 20.0384 105.545 19.9361C105.71 19.8337 105.886 19.785 106.076 19.785C106.646 19.785 106.929 20.0969 106.929 20.7256V23.3086H107.67V20.5891Z" fill="#09021A"/>
<path d="M111.715 19.9897C111.573 19.7363 111.373 19.5413 111.12 19.4C110.867 19.2635 110.574 19.1904 110.253 19.1855H110.189C109.838 19.1855 109.531 19.2684 109.263 19.4341C108.995 19.5998 108.786 19.8337 108.639 20.1359C108.493 20.4429 108.42 20.7938 108.42 21.1935V21.3835C108.42 21.7881 108.493 22.1341 108.639 22.4363C108.781 22.7384 108.99 22.9724 109.258 23.1381C109.526 23.3038 109.838 23.3866 110.199 23.3866H110.262C110.769 23.3866 111.174 23.2355 111.476 22.9334C111.778 22.6361 111.929 22.2316 111.929 21.7247H111.218C111.218 22.0512 111.135 22.3144 110.974 22.5045C110.813 22.6946 110.574 22.792 110.253 22.792C109.907 22.792 109.638 22.6799 109.448 22.4558C109.263 22.2316 109.166 21.8904 109.166 21.4323V21.0034C109.166 20.6233 109.258 20.326 109.453 20.1066C109.648 19.8873 109.921 19.7801 110.233 19.7801C110.545 19.7801 110.784 19.8776 110.949 20.0725C111.115 20.2675 111.198 20.5307 111.198 20.8572H111.929C111.929 20.5307 111.856 20.2431 111.715 19.9897Z" fill="#09021A"/>
<path d="M113.396 23.3086V22.4314H112.597V23.3086H113.396Z" fill="#09021A"/>
</g>
<g id="Vector_5">
<path d="M27.4382 0.842522H22.3951V23.1793H27.4382V0.842522Z" fill="#09021A"/>
<path d="M42.1594 5.21515C42.808 5.68156 43.1359 6.33016 43.1359 7.15368H43.1432V7.44518H47.8657V7.05165C47.8657 4.8872 47.0713 3.24746 45.4899 2.15431C43.9084 1.05387 41.8679 0.507288 39.3682 0.507288C37.7357 0.507288 36.2636 0.75507 34.9518 1.24335C33.64 1.73162 32.5906 2.47497 31.8108 3.47338C31.0311 4.4718 30.6375 5.68156 30.6375 7.11724C30.6375 8.65494 31.0165 9.88656 31.7744 10.7975C32.5323 11.7158 33.436 12.3717 34.4781 12.7871C35.5203 13.2025 36.8685 13.6106 38.5155 14.026C39.6233 14.2883 40.4832 14.5215 41.1027 14.7256C41.7221 14.9297 42.2323 15.2139 42.6331 15.571C43.0339 15.9281 43.238 16.3945 43.238 16.9556C43.238 17.6917 42.91 18.3039 42.2468 18.7776C41.5836 19.2513 40.4978 19.4918 38.9747 19.4918C37.6702 19.4918 36.6572 19.2148 35.943 18.661C35.2288 18.1071 34.8717 17.3492 34.8717 16.3945V15.8771H30.1201V16.5913C30.1201 18.916 30.9727 20.6505 32.6781 21.7874C34.3834 22.9316 36.5333 23.5 39.1423 23.5C42.0063 23.5 44.2582 22.9024 45.898 21.7218C47.5377 20.5412 48.3539 18.6828 48.3539 16.1394C48.3539 14.6892 47.9823 13.5231 47.2316 12.6559C46.481 11.7814 45.5773 11.1473 44.5279 10.7319C43.4712 10.3238 42.1302 9.923 40.5051 9.52947C39.3973 9.26711 38.5228 9.0339 37.8815 8.81527C37.2402 8.60393 36.7155 8.31242 36.3001 7.95532C35.8847 7.59094 35.6806 7.14639 35.6806 6.59981C35.6806 5.96578 36.0086 5.46293 36.6717 5.08397C37.3349 4.70501 38.3042 4.51553 39.4556 4.51553C40.6071 4.51553 41.5108 4.74873 42.1594 5.21515Z" fill="#09021A"/>
<path d="M19.0355 11.0307C19.0355 11.0307 19.2177 11.57 19.0355 15.141C18.8533 18.7557 17.5925 20.3517 16.1058 21.6198C13.6717 23.7113 10.6692 23.4854 9.40843 23.4854H9.2481C7.46261 23.4854 5.87389 23.0846 4.47465 22.283C3.07541 21.474 1.98226 20.3298 1.1879 18.8286C0.393536 17.3346 0 15.5856 0 13.5887V10.3967C0 8.39987 0.415399 6.65082 1.23891 5.15684C2.06242 3.65558 3.22117 2.50412 4.70786 1.70247C6.19455 0.900824 7.8853 0.5 9.77281 0.5H10.2319C11.8571 0.5 13.3438 0.842522 14.692 1.52757C16.0402 2.21261 17.1042 3.18188 17.884 4.42807C18.4452 5.32446 18.8023 6.33016 18.9626 7.4379H14.1527C13.9632 6.6654 13.5989 6.05323 13.0596 5.57953C12.2361 4.86534 11.1939 4.50824 9.93314 4.50824C8.57034 4.50824 7.44804 4.96008 6.5808 5.86375C5.71356 6.76743 5.2763 8.04278 5.2763 9.6898V14.3175C5.2763 15.9645 5.72085 17.2399 6.62453 18.1435C7.5282 19.0399 8.68694 19.4918 10.0279 19.4918C11.3688 19.4918 12.4255 19.0909 13.1835 18.2893C13.9414 17.4876 14.3203 16.2852 14.3203 14.6746H9.26996V11.0307H19.0355Z" fill="#09021A"/>
<path d="M56.0862 0.842522H51.0431V23.1793H56.0862V0.842522Z" fill="#09021A"/>
</g>
</g>
</svg>
