<svg xmlns="http://www.w3.org/2000/svg" width="64" height="65" viewBox="0 0 64 65" fill="none">
  <g clip-path="url(#clip0_979_3929)">
    <path d="M44.3938 8.74897C42.7377 8.74897 41.1435 9.01363 39.6502 9.50104C38.0527 4.28955 33.2035 0.5 27.4687 0.5C20.4331 0.5 14.7296 6.20353 14.7296 13.2391C14.7296 14.2557 14.8493 15.2442 15.0743 16.1919C9.07009 16.6152 4.33032 21.6195 4.33032 27.7315C4.33032 34.121 9.51006 39.3007 15.8995 39.3007H44.3937C52.8304 39.3007 59.6696 32.4615 59.6696 24.0248C59.6696 15.5881 52.8304 8.74897 44.3938 8.74897Z" fill="url(#paint0_linear_979_3929)"/>
    <path d="M4.41956 29.1719C5.12858 34.8817 9.99785 39.3009 15.8996 39.3009H44.3938C51.0245 39.3009 56.6674 35.0761 58.78 29.1719H4.41956Z" fill="url(#paint1_linear_979_3929)"/>
    <path d="M29.1176 24.0251C29.1176 24.6448 29.1548 25.2555 29.2269 25.8558C28.6522 25.9367 28.0647 25.9779 27.4682 25.9779C20.4325 25.9779 14.7299 20.274 14.7299 13.2383C14.7299 6.20378 20.4325 0.5 27.4682 0.5C33.203 0.5 38.0533 4.2898 39.65 9.50129C33.5359 11.4951 29.1176 17.2439 29.1176 24.0251Z" fill="url(#paint2_linear_979_3929)"/>
    <path d="M44.3938 39.301C46.7881 39.301 49.0533 38.7497 51.0704 37.7679L33.7134 20.4132L33.7082 20.4054C32.9622 19.275 31.3035 19.275 30.5574 20.4054L23.1915 31.5659C22.578 32.4954 22.9133 33.6534 23.7392 34.1917L28.2109 38.6991V39.301H44.3938Z" fill="url(#paint3_linear_979_3929)"/>
    <path d="M30.4246 20.4054L23.0587 31.5659C22.2305 32.8209 23.1305 34.4933 24.6341 34.4933H28.0781V43.5133C28.0781 44.5169 28.8916 45.3305 29.8953 45.3305H34.1049C35.1084 45.3305 35.9221 44.517 35.9221 43.5133V34.4933H39.3661C40.8697 34.4933 41.7697 32.8209 40.9415 31.5659L33.5756 20.4054C32.8294 19.275 31.1707 19.275 30.4246 20.4054Z" fill="url(#paint4_linear_979_3929)"/>
    <path d="M30.2374 45.5875H19.7526V42.6013C19.7526 41.6118 20.5547 40.8096 21.5443 40.8096H28.4456C29.4351 40.8096 30.2374 41.6117 30.2374 42.6013V45.5875Z" fill="url(#paint5_linear_979_3929)"/>
    <path d="M27.5434 45.5875H17.0586V42.6013C17.0586 41.6118 17.8607 40.8096 18.8503 40.8096H25.7517C26.7412 40.8096 27.5434 41.6117 27.5434 42.6013V45.5875Z" fill="url(#paint6_linear_979_3929)"/>
    <path d="M24.6899 44.2105V42.6013C24.6899 41.6118 23.8878 40.8096 22.8982 40.8096H15.9968C15.0073 40.8096 14.2051 41.6117 14.2051 42.6013V61.9474C14.2051 63.3572 15.3479 64.4999 16.7575 64.4999H38.8744C40.2842 64.4999 41.4269 63.357 41.4269 61.9474V47.5427C41.4269 46.133 40.2841 44.9903 38.8744 44.9903H25.4696C25.039 44.9902 24.6899 44.6412 24.6899 44.2105Z" fill="url(#paint7_linear_979_3929)"/>
    <path d="M14.2052 59.125V61.9475C14.2052 63.3573 15.348 64.5 16.7577 64.5H38.8746C40.2843 64.5 41.427 63.3572 41.427 61.9475V59.125H14.2052Z" fill="url(#paint8_linear_979_3929)"/>
    <path d="M41.427 61.9474V57.8701H29.8558V59.2741C29.8558 59.6881 30.0549 60.0544 30.3601 60.2867L34.5703 64.4999H38.8746C40.2843 64.4999 41.427 63.3571 41.427 61.9474Z" fill="url(#paint9_linear_979_3929)"/>
    <path d="M42.321 60.4128H30.9945C30.2924 60.4128 29.7231 59.8435 29.7231 59.1414V40.129C29.7231 39.6716 30.094 39.3008 30.5514 39.3008H44.9214C45.3788 39.3008 45.7496 39.6716 45.7496 40.129V56.9839C45.7497 58.8776 44.2146 60.4128 42.321 60.4128Z" fill="url(#paint10_linear_979_3929)"/>
    <path d="M43.8234 61.9157H32.4969C31.7948 61.9157 31.2256 61.3465 31.2256 60.6443V41.6319C31.2256 41.1745 31.5964 40.8037 32.0538 40.8037H46.4238C46.8812 40.8037 47.2521 41.1745 47.2521 41.6319V58.4869C47.2522 60.3806 45.7171 61.9157 43.8234 61.9157Z" fill="url(#paint11_linear_979_3929)"/>
    <path d="M45.2965 45.9956H34.4141C34.0715 45.9956 33.7938 45.7179 33.7938 45.3753V44.5295C33.7938 44.1869 34.0715 43.9092 34.4141 43.9092H45.2965C45.6391 43.9092 45.9168 44.1869 45.9168 44.5295V45.3753C45.9167 45.718 45.639 45.9956 45.2965 45.9956Z" fill="#3E5959"/>
    <path d="M45.2965 49.4917H34.4141C34.0715 49.4917 33.7938 49.214 33.7938 48.8714V48.0256C33.7938 47.683 34.0715 47.4053 34.4141 47.4053H45.2965C45.6391 47.4053 45.9168 47.683 45.9168 48.0256V48.8714C45.9167 49.214 45.639 49.4917 45.2965 49.4917Z" fill="#3E5959"/>
    <path d="M39.7707 52.9878H34.4141C34.0715 52.9878 33.7938 52.7101 33.7938 52.3675V51.5217C33.7938 51.1791 34.0715 50.9014 34.4141 50.9014H39.7707C40.1133 50.9014 40.391 51.1791 40.391 51.5217V52.3675C40.391 52.7101 40.1133 52.9878 39.7707 52.9878Z" fill="#3E5959"/>
    <path d="M31.2256 56.0088V60.6446C31.2256 61.3468 31.7948 61.916 32.4969 61.916H43.8234C45.7171 61.916 47.2522 60.3809 47.2522 58.4872V56.0088H31.2256Z" fill="url(#paint12_linear_979_3929)"/>
    <path d="M33.7683 55.963V60.6438C33.7683 61.3459 33.1991 61.9151 32.4969 61.9151H46.3661C48.2598 61.9151 49.7949 60.38 49.7949 58.4864V55.963C49.7949 55.5056 49.4241 55.1348 48.9667 55.1348H34.5966C34.1391 55.1348 33.7683 55.5056 33.7683 55.963Z" fill="url(#paint13_linear_979_3929)"/>
  </g>
  <defs>
    <linearGradient id="paint0_linear_979_3929" x1="16.1328" y1="9.2434" x2="46.1036" y2="39.2141" gradientUnits="userSpaceOnUse">
      <stop stop-color="#60B7FF"/>
      <stop offset="1" stop-color="#0268B4"/>
    </linearGradient>
    <linearGradient id="paint1_linear_979_3929" x1="31.5997" y1="31.4859" x2="31.5997" y2="38.4981" gradientUnits="userSpaceOnUse">
      <stop stop-color="#0268B4" stop-opacity="0"/>
      <stop offset="1" stop-color="#0268B4"/>
    </linearGradient>
    <linearGradient id="paint2_linear_979_3929" x1="26.4411" y1="13.4667" x2="43.5595" y2="8.49034" gradientUnits="userSpaceOnUse">
      <stop stop-color="#0268B4" stop-opacity="0"/>
      <stop offset="1" stop-color="#0268B4"/>
    </linearGradient>
    <linearGradient id="paint3_linear_979_3929" x1="51.1425" y1="50.0082" x2="38.0252" y2="36.891" gradientUnits="userSpaceOnUse">
      <stop stop-color="#0268B4" stop-opacity="0"/>
      <stop offset="1" stop-color="#0268B4"/>
    </linearGradient>
    <linearGradient id="paint4_linear_979_3929" x1="25.1735" y1="26.6545" x2="36.991" y2="38.4721" gradientUnits="userSpaceOnUse">
      <stop stop-color="#C1E9AF"/>
      <stop offset="1" stop-color="#4FC123"/>
    </linearGradient>
    <linearGradient id="paint5_linear_979_3929" x1="24.995" y1="42.5354" x2="24.995" y2="43.9142" gradientUnits="userSpaceOnUse">
      <stop stop-color="#FE9738"/>
      <stop offset="1" stop-color="#F46700"/>
    </linearGradient>
    <linearGradient id="paint6_linear_979_3929" x1="22.3011" y1="40.5518" x2="22.3011" y2="44.3539" gradientUnits="userSpaceOnUse">
      <stop stop-color="#FFE177"/>
      <stop offset="1" stop-color="#FE9738"/>
    </linearGradient>
    <linearGradient id="paint7_linear_979_3929" x1="16.6905" y1="43.6194" x2="33.4125" y2="60.3414" gradientUnits="userSpaceOnUse">
      <stop stop-color="#FFE177"/>
      <stop offset="1" stop-color="#FE9738"/>
    </linearGradient>
    <linearGradient id="paint8_linear_979_3929" x1="27.8161" y1="59.0669" x2="27.8161" y2="63.8723" gradientUnits="userSpaceOnUse">
      <stop stop-color="#FE9738" stop-opacity="0"/>
      <stop offset="1" stop-color="#F46700"/>
    </linearGradient>
    <linearGradient id="paint9_linear_979_3929" x1="35.6414" y1="67.9116" x2="35.6414" y2="58.3088" gradientUnits="userSpaceOnUse">
      <stop stop-color="#F46700" stop-opacity="0"/>
      <stop offset="1" stop-color="#F46700"/>
    </linearGradient>
    <linearGradient id="paint10_linear_979_3929" x1="30.0962" y1="42.0868" x2="36.2336" y2="48.224" gradientUnits="userSpaceOnUse">
      <stop stop-color="#CBE5E8"/>
      <stop offset="1" stop-color="#8EBAC5"/>
    </linearGradient>
    <linearGradient id="paint11_linear_979_3929" x1="39.2389" y1="48.43" x2="39.2389" y2="54.5221" gradientUnits="userSpaceOnUse">
      <stop stop-color="#EEF5F6"/>
      <stop offset="1" stop-color="#CBE5E8"/>
    </linearGradient>
    <linearGradient id="paint12_linear_979_3929" x1="39.2389" y1="57.7039" x2="39.2389" y2="61.8146" gradientUnits="userSpaceOnUse">
      <stop stop-color="#CBE5E8" stop-opacity="0"/>
      <stop offset="1" stop-color="#7CA1B1"/>
    </linearGradient>
    <linearGradient id="paint13_linear_979_3929" x1="41.146" y1="57.5841" x2="41.146" y2="59.5406" gradientUnits="userSpaceOnUse">
      <stop stop-color="#EEF5F6"/>
      <stop offset="1" stop-color="#CBE5E8"/>
    </linearGradient>
    <clipPath id="clip0_979_3929">
      <rect width="64" height="64" fill="white" transform="translate(0 0.5)"/>
    </clipPath>
  </defs>
</svg>